<mxfile host="app.diagrams.net" modified="2023-05-11T08:17:16.133Z" agent="Mozilla/5.0 (Windows NT 10.0; Win64; x64) AppleWebKit/537.36 (KHTML, like Gecko) Chrome/113.0.0.0 Safari/537.36" etag="W7zJGuvh46T-Jpzgmtwe" version="21.2.9" type="google">
  <diagram name="Page-1" id="b5b7bab2-c9e2-2cf4-8b2a-24fd1a2a6d21">
    <mxGraphModel grid="1" page="1" gridSize="10" guides="1" tooltips="1" connect="1" arrows="1" fold="1" pageScale="1" pageWidth="827" pageHeight="1169" background="none" math="0" shadow="0">
      <root>
        <mxCell id="0" />
        <mxCell id="1" parent="0" />
        <mxCell id="THvIdB2N3yqFJeVhvD4z-1" value="&lt;p style=&quot;margin:0px;margin-top:4px;text-align:center;&quot;&gt;&lt;b&gt;채용 정보 관리 시스템&lt;/b&gt;&lt;/p&gt;&lt;hr size=&quot;1&quot;&gt;&lt;div style=&quot;height:2px;&quot;&gt;&lt;/div&gt;" style="verticalAlign=top;align=left;overflow=fill;fontSize=12;fontFamily=Helvetica;html=1;whiteSpace=wrap;" vertex="1" parent="1">
          <mxGeometry x="165" y="20" width="530" height="610" as="geometry" />
        </mxCell>
        <mxCell id="THvIdB2N3yqFJeVhvD4z-2" value="회사 회원" style="shape=umlActor;verticalLabelPosition=bottom;verticalAlign=top;html=1;" vertex="1" parent="1">
          <mxGeometry x="25" y="160" width="30" height="60" as="geometry" />
        </mxCell>
        <mxCell id="THvIdB2N3yqFJeVhvD4z-3" value="채용 정보 등록" style="ellipse;whiteSpace=wrap;html=1;" vertex="1" parent="1">
          <mxGeometry x="215" y="70" width="140" height="70" as="geometry" />
        </mxCell>
        <mxCell id="THvIdB2N3yqFJeVhvD4z-4" value="등록한 채용 정보 리스트 조회" style="ellipse;whiteSpace=wrap;html=1;" vertex="1" parent="1">
          <mxGeometry x="215" y="380" width="140" height="70" as="geometry" />
        </mxCell>
        <mxCell id="THvIdB2N3yqFJeVhvD4z-5" value="채용 정보 마감된 &lt;br&gt;리스트 조회" style="ellipse;whiteSpace=wrap;html=1;" vertex="1" parent="1">
          <mxGeometry x="215" y="500" width="140" height="70" as="geometry" />
        </mxCell>
        <mxCell id="THvIdB2N3yqFJeVhvD4z-6" value="채용 정보 수정" style="ellipse;whiteSpace=wrap;html=1;" vertex="1" parent="1">
          <mxGeometry x="215" y="180" width="140" height="70" as="geometry" />
        </mxCell>
        <mxCell id="THvIdB2N3yqFJeVhvD4z-7" value="채용 조기 마감" style="ellipse;whiteSpace=wrap;html=1;" vertex="1" parent="1">
          <mxGeometry x="475" y="380" width="140" height="70" as="geometry" />
        </mxCell>
        <mxCell id="THvIdB2N3yqFJeVhvD4z-8" value="" style="endArrow=none;html=1;rounded=0;entryX=0;entryY=0.5;entryDx=0;entryDy=0;exitX=0.7;exitY=0.767;exitDx=0;exitDy=0;exitPerimeter=0;" edge="1" parent="1" source="THvIdB2N3yqFJeVhvD4z-2" target="THvIdB2N3yqFJeVhvD4z-4">
          <mxGeometry width="50" height="50" relative="1" as="geometry">
            <mxPoint x="59" y="179" as="sourcePoint" />
            <mxPoint x="227" y="143" as="targetPoint" />
          </mxGeometry>
        </mxCell>
        <mxCell id="THvIdB2N3yqFJeVhvD4z-9" value="" style="endArrow=none;html=1;rounded=0;entryX=0.007;entryY=0.357;entryDx=0;entryDy=0;entryPerimeter=0;exitX=0.8;exitY=0.817;exitDx=0;exitDy=0;exitPerimeter=0;" edge="1" parent="1" source="THvIdB2N3yqFJeVhvD4z-2" target="THvIdB2N3yqFJeVhvD4z-5">
          <mxGeometry width="50" height="50" relative="1" as="geometry">
            <mxPoint x="785" y="240" as="sourcePoint" />
            <mxPoint x="835" y="190" as="targetPoint" />
          </mxGeometry>
        </mxCell>
        <mxCell id="THvIdB2N3yqFJeVhvD4z-10" value="" style="endArrow=none;html=1;rounded=0;entryX=0;entryY=0.5;entryDx=0;entryDy=0;exitX=0.75;exitY=0.1;exitDx=0;exitDy=0;exitPerimeter=0;" edge="1" parent="1" source="THvIdB2N3yqFJeVhvD4z-2" target="THvIdB2N3yqFJeVhvD4z-3">
          <mxGeometry width="50" height="50" relative="1" as="geometry">
            <mxPoint x="5" y="100" as="sourcePoint" />
            <mxPoint x="55" y="50" as="targetPoint" />
          </mxGeometry>
        </mxCell>
        <mxCell id="THvIdB2N3yqFJeVhvD4z-11" value="" style="endArrow=none;html=1;rounded=0;entryX=0.007;entryY=0.4;entryDx=0;entryDy=0;entryPerimeter=0;exitX=1;exitY=0.3333333333333333;exitDx=0;exitDy=0;exitPerimeter=0;" edge="1" parent="1" source="THvIdB2N3yqFJeVhvD4z-2" target="THvIdB2N3yqFJeVhvD4z-6">
          <mxGeometry width="50" height="50" relative="1" as="geometry">
            <mxPoint x="25" y="304" as="sourcePoint" />
            <mxPoint x="192" y="440" as="targetPoint" />
          </mxGeometry>
        </mxCell>
        <mxCell id="THvIdB2N3yqFJeVhvD4z-12" value="채용 정보 삭제" style="ellipse;whiteSpace=wrap;html=1;" vertex="1" parent="1">
          <mxGeometry x="215" y="280" width="140" height="70" as="geometry" />
        </mxCell>
        <mxCell id="THvIdB2N3yqFJeVhvD4z-13" value="" style="endArrow=none;html=1;rounded=0;entryX=0.029;entryY=0.386;entryDx=0;entryDy=0;entryPerimeter=0;exitX=0.4;exitY=0.65;exitDx=0;exitDy=0;exitPerimeter=0;" edge="1" parent="1" source="THvIdB2N3yqFJeVhvD4z-2" target="THvIdB2N3yqFJeVhvD4z-12">
          <mxGeometry width="50" height="50" relative="1" as="geometry">
            <mxPoint x="65" y="190" as="sourcePoint" />
            <mxPoint x="226" y="218" as="targetPoint" />
          </mxGeometry>
        </mxCell>
        <mxCell id="THvIdB2N3yqFJeVhvD4z-14" value="&amp;lt;&amp;lt;extend&amp;gt;&amp;gt;" style="endArrow=open;endSize=12;dashed=1;html=1;rounded=0;entryX=1;entryY=0.5;entryDx=0;entryDy=0;exitX=0;exitY=0.5;exitDx=0;exitDy=0;" edge="1" parent="1" source="THvIdB2N3yqFJeVhvD4z-7" target="THvIdB2N3yqFJeVhvD4z-4">
          <mxGeometry width="160" relative="1" as="geometry">
            <mxPoint x="445" y="350" as="sourcePoint" />
            <mxPoint x="605" y="350" as="targetPoint" />
          </mxGeometry>
        </mxCell>
        <mxCell id="_EsRxaXNr39jAv2G4_3R-1" value="회사 회원" style="shape=umlActor;verticalLabelPosition=bottom;verticalAlign=top;html=1;" vertex="1" parent="1">
          <mxGeometry x="65" y="725" width="30" height="60" as="geometry" />
        </mxCell>
        <mxCell id="Xb1e7kF9UDghLhpTketb-2" value=":AddRecruit UI" style="rounded=0;whiteSpace=wrap;html=1;" vertex="1" parent="1">
          <mxGeometry x="160" y="885" width="120" height="60" as="geometry" />
        </mxCell>
        <mxCell id="bZW9feNbAllSj9TjUGjz-1" value=":AddRecruit" style="whiteSpace=wrap;html=1;" vertex="1" parent="1">
          <mxGeometry x="160" y="1045" width="120" height="60" as="geometry" />
        </mxCell>
        <mxCell id="bZW9feNbAllSj9TjUGjz-7" value="" style="endArrow=none;html=1;rounded=0;entryX=0.5;entryY=0;entryDx=0;entryDy=0;exitX=0.5;exitY=0.817;exitDx=0;exitDy=0;exitPerimeter=0;" edge="1" parent="1" source="_EsRxaXNr39jAv2G4_3R-1" target="Xb1e7kF9UDghLhpTketb-2">
          <mxGeometry width="50" height="50" relative="1" as="geometry">
            <mxPoint x="200" y="865" as="sourcePoint" />
            <mxPoint x="250" y="815" as="targetPoint" />
          </mxGeometry>
        </mxCell>
        <mxCell id="bZW9feNbAllSj9TjUGjz-8" value="" style="endArrow=none;html=1;rounded=0;entryX=0.5;entryY=0;entryDx=0;entryDy=0;exitX=0.5;exitY=1;exitDx=0;exitDy=0;" edge="1" parent="1" source="Xb1e7kF9UDghLhpTketb-2" target="bZW9feNbAllSj9TjUGjz-1">
          <mxGeometry width="50" height="50" relative="1" as="geometry">
            <mxPoint x="295" y="1045" as="sourcePoint" />
            <mxPoint x="80" y="1055" as="targetPoint" />
          </mxGeometry>
        </mxCell>
        <mxCell id="bZW9feNbAllSj9TjUGjz-10" value="" style="endArrow=classic;html=1;rounded=0;" edge="1" parent="1">
          <mxGeometry width="50" height="50" relative="1" as="geometry">
            <mxPoint x="120" y="775" as="sourcePoint" />
            <mxPoint x="190" y="835" as="targetPoint" />
            <Array as="points" />
          </mxGeometry>
        </mxCell>
        <mxCell id="bZW9feNbAllSj9TjUGjz-18" value="" style="endArrow=classic;html=1;rounded=0;" edge="1" parent="1">
          <mxGeometry width="50" height="50" relative="1" as="geometry">
            <mxPoint x="240" y="975" as="sourcePoint" />
            <mxPoint x="240" y="1035" as="targetPoint" />
          </mxGeometry>
        </mxCell>
        <mxCell id="bZW9feNbAllSj9TjUGjz-19" value="&lt;span data-darkreader-inline-bgcolor=&quot;&quot; data-darkreader-inline-color=&quot;&quot; style=&quot;color: rgb(255, 255, 251); font-family: Helvetica; font-size: 12px; font-style: normal; font-variant-ligatures: normal; font-variant-caps: normal; font-weight: 400; letter-spacing: normal; orphans: 2; text-align: center; text-indent: 0px; text-transform: none; widows: 2; word-spacing: 0px; -webkit-text-stroke-width: 0px; background-color: rgb(39, 39, 38); text-decoration-thickness: initial; text-decoration-style: initial; text-decoration-color: initial; float: none; --darkreader-inline-color: #ffffec; --darkreader-inline-bgcolor: #2b2b29; display: inline !important;&quot;&gt;2.1 showRecruitInfoDetail()&lt;br&gt;3.1 addRecruit()&lt;br&gt;&lt;/span&gt;" style="text;whiteSpace=wrap;html=1;" vertex="1" parent="1">
          <mxGeometry x="250" y="971" width="156" height="20" as="geometry" />
        </mxCell>
        <mxCell id="bZW9feNbAllSj9TjUGjz-21" value="새로운 채용정보 등록하기" style="shape=umlFrame;whiteSpace=wrap;html=1;pointerEvents=0;width=160;height=20;" vertex="1" parent="1">
          <mxGeometry y="700" width="470" height="540" as="geometry" />
        </mxCell>
        <mxCell id="K71paMH0ZI0jcNfA3QA--1" value="NewRecruit:RecruitInfo" style="whiteSpace=wrap;html=1;" vertex="1" parent="1">
          <mxGeometry x="300" y="1165" width="140" height="60" as="geometry" />
        </mxCell>
        <mxCell id="K71paMH0ZI0jcNfA3QA--2" value=":Company" style="whiteSpace=wrap;html=1;" vertex="1" parent="1">
          <mxGeometry x="50" y="1165" width="120" height="60" as="geometry" />
        </mxCell>
        <mxCell id="K71paMH0ZI0jcNfA3QA--4" value="" style="endArrow=none;html=1;rounded=0;entryX=0.117;entryY=1.017;entryDx=0;entryDy=0;entryPerimeter=0;exitX=0.675;exitY=-0.017;exitDx=0;exitDy=0;exitPerimeter=0;" edge="1" parent="1" source="K71paMH0ZI0jcNfA3QA--2" target="bZW9feNbAllSj9TjUGjz-1">
          <mxGeometry width="50" height="50" relative="1" as="geometry">
            <mxPoint x="220" y="1015" as="sourcePoint" />
            <mxPoint x="270" y="965" as="targetPoint" />
          </mxGeometry>
        </mxCell>
        <mxCell id="K71paMH0ZI0jcNfA3QA--5" value="2.1.1 getCompanyInfo()&lt;br&gt;3.1.1 addNewRecruit()" style="text;html=1;strokeColor=none;fillColor=none;align=center;verticalAlign=middle;whiteSpace=wrap;rounded=0;" vertex="1" parent="1">
          <mxGeometry x="10" y="1095" width="135" height="30" as="geometry" />
        </mxCell>
        <mxCell id="K71paMH0ZI0jcNfA3QA--6" value="1. startInterface()" style="text;html=1;align=center;verticalAlign=middle;resizable=0;points=[];autosize=1;strokeColor=none;fillColor=none;" vertex="1" parent="1">
          <mxGeometry x="90" y="975" width="110" height="30" as="geometry" />
        </mxCell>
        <mxCell id="K71paMH0ZI0jcNfA3QA--7" value="" style="endArrow=classic;html=1;rounded=0;" edge="1" parent="1">
          <mxGeometry width="50" height="50" relative="1" as="geometry">
            <mxPoint x="210" y="1025" as="sourcePoint" />
            <mxPoint x="210" y="955" as="targetPoint" />
          </mxGeometry>
        </mxCell>
        <mxCell id="K71paMH0ZI0jcNfA3QA--8" value="2. selectCompany()&lt;br&gt;3. addRecruit()" style="text;html=1;align=center;verticalAlign=middle;resizable=0;points=[];autosize=1;strokeColor=none;fillColor=none;" vertex="1" parent="1">
          <mxGeometry x="155" y="761" width="130" height="40" as="geometry" />
        </mxCell>
        <mxCell id="K71paMH0ZI0jcNfA3QA--10" value="" style="endArrow=classic;html=1;rounded=0;" edge="1" parent="1">
          <mxGeometry width="50" height="50" relative="1" as="geometry">
            <mxPoint x="144.5" y="1115" as="sourcePoint" />
            <mxPoint x="120" y="1145" as="targetPoint" />
          </mxGeometry>
        </mxCell>
        <mxCell id="K71paMH0ZI0jcNfA3QA--27" value="회사 회원" style="shape=umlActor;verticalLabelPosition=bottom;verticalAlign=top;html=1;" vertex="1" parent="1">
          <mxGeometry x="570" y="730" width="30" height="60" as="geometry" />
        </mxCell>
        <mxCell id="K71paMH0ZI0jcNfA3QA--28" value=":ShowRecruit UI" style="rounded=0;whiteSpace=wrap;html=1;" vertex="1" parent="1">
          <mxGeometry x="685" y="882.5" width="120" height="60" as="geometry" />
        </mxCell>
        <mxCell id="K71paMH0ZI0jcNfA3QA--29" value=":ShowRecruit" style="whiteSpace=wrap;html=1;" vertex="1" parent="1">
          <mxGeometry x="685" y="1042.5" width="120" height="60" as="geometry" />
        </mxCell>
        <mxCell id="K71paMH0ZI0jcNfA3QA--30" value="" style="endArrow=none;html=1;rounded=0;entryX=0.5;entryY=0;entryDx=0;entryDy=0;exitX=0.5;exitY=0.817;exitDx=0;exitDy=0;exitPerimeter=0;" edge="1" parent="1" target="K71paMH0ZI0jcNfA3QA--28">
          <mxGeometry width="50" height="50" relative="1" as="geometry">
            <mxPoint x="605" y="771.52" as="sourcePoint" />
            <mxPoint x="775" y="812.5" as="targetPoint" />
          </mxGeometry>
        </mxCell>
        <mxCell id="K71paMH0ZI0jcNfA3QA--31" value="" style="endArrow=none;html=1;rounded=0;entryX=0.5;entryY=0;entryDx=0;entryDy=0;exitX=0.5;exitY=1;exitDx=0;exitDy=0;" edge="1" parent="1" source="K71paMH0ZI0jcNfA3QA--28" target="K71paMH0ZI0jcNfA3QA--29">
          <mxGeometry width="50" height="50" relative="1" as="geometry">
            <mxPoint x="820" y="1042.5" as="sourcePoint" />
            <mxPoint x="605" y="1052.5" as="targetPoint" />
          </mxGeometry>
        </mxCell>
        <mxCell id="K71paMH0ZI0jcNfA3QA--32" value="" style="endArrow=classic;html=1;rounded=0;" edge="1" parent="1">
          <mxGeometry width="50" height="50" relative="1" as="geometry">
            <mxPoint x="645" y="772.5" as="sourcePoint" />
            <mxPoint x="715" y="832.5" as="targetPoint" />
            <Array as="points" />
          </mxGeometry>
        </mxCell>
        <mxCell id="K71paMH0ZI0jcNfA3QA--33" value="" style="endArrow=classic;html=1;rounded=0;" edge="1" parent="1">
          <mxGeometry width="50" height="50" relative="1" as="geometry">
            <mxPoint x="765" y="972.5" as="sourcePoint" />
            <mxPoint x="765" y="1032.5" as="targetPoint" />
          </mxGeometry>
        </mxCell>
        <mxCell id="K71paMH0ZI0jcNfA3QA--34" value="&lt;span data-darkreader-inline-bgcolor=&quot;&quot; data-darkreader-inline-color=&quot;&quot; style=&quot;color: rgb(255, 255, 251); font-family: Helvetica; font-size: 12px; font-style: normal; font-variant-ligatures: normal; font-variant-caps: normal; font-weight: 400; letter-spacing: normal; orphans: 2; text-align: center; text-indent: 0px; text-transform: none; widows: 2; word-spacing: 0px; -webkit-text-stroke-width: 0px; background-color: rgb(39, 39, 38); text-decoration-thickness: initial; text-decoration-style: initial; text-decoration-color: initial; float: none; --darkreader-inline-color: #ffffec; --darkreader-inline-bgcolor: #2b2b29; display: inline !important;&quot;&gt;2.1 showRecruitInfoDetail()&lt;/span&gt;" style="text;whiteSpace=wrap;html=1;" vertex="1" parent="1">
          <mxGeometry x="775" y="962.5" width="185" height="20" as="geometry" />
        </mxCell>
        <mxCell id="K71paMH0ZI0jcNfA3QA--35" value="채용정보 조회하기" style="shape=umlFrame;whiteSpace=wrap;html=1;pointerEvents=0;width=160;height=20;" vertex="1" parent="1">
          <mxGeometry x="520" y="700" width="470" height="540" as="geometry" />
        </mxCell>
        <mxCell id="K71paMH0ZI0jcNfA3QA--36" value=":RecruitInfo" style="whiteSpace=wrap;html=1;" vertex="1" parent="1">
          <mxGeometry x="825" y="1162.5" width="120" height="60" as="geometry" />
        </mxCell>
        <mxCell id="K71paMH0ZI0jcNfA3QA--37" value=":Company" style="whiteSpace=wrap;html=1;" vertex="1" parent="1">
          <mxGeometry x="575" y="1162.5" width="120" height="60" as="geometry" />
        </mxCell>
        <mxCell id="K71paMH0ZI0jcNfA3QA--38" value="" style="endArrow=none;html=1;rounded=0;entryX=0.5;entryY=0;entryDx=0;entryDy=0;exitX=1;exitY=1;exitDx=0;exitDy=0;" edge="1" parent="1" source="K71paMH0ZI0jcNfA3QA--29" target="K71paMH0ZI0jcNfA3QA--36">
          <mxGeometry width="50" height="50" relative="1" as="geometry">
            <mxPoint x="745" y="1012.5" as="sourcePoint" />
            <mxPoint x="795" y="962.5" as="targetPoint" />
          </mxGeometry>
        </mxCell>
        <mxCell id="K71paMH0ZI0jcNfA3QA--39" value="" style="endArrow=none;html=1;rounded=0;entryX=0.117;entryY=1.017;entryDx=0;entryDy=0;entryPerimeter=0;exitX=0.675;exitY=-0.017;exitDx=0;exitDy=0;exitPerimeter=0;" edge="1" parent="1" source="K71paMH0ZI0jcNfA3QA--37" target="K71paMH0ZI0jcNfA3QA--29">
          <mxGeometry width="50" height="50" relative="1" as="geometry">
            <mxPoint x="745" y="1012.5" as="sourcePoint" />
            <mxPoint x="795" y="962.5" as="targetPoint" />
          </mxGeometry>
        </mxCell>
        <mxCell id="K71paMH0ZI0jcNfA3QA--40" value="&lt;span style=&quot;text-align: left;&quot;&gt;2.1.2 listRecruitInfo()&lt;/span&gt;" style="text;html=1;strokeColor=none;fillColor=none;align=center;verticalAlign=middle;whiteSpace=wrap;rounded=0;" vertex="1" parent="1">
          <mxGeometry x="530" y="1100.5" width="130" height="30" as="geometry" />
        </mxCell>
        <mxCell id="K71paMH0ZI0jcNfA3QA--41" value="1. startInterface()" style="text;html=1;align=center;verticalAlign=middle;resizable=0;points=[];autosize=1;strokeColor=none;fillColor=none;" vertex="1" parent="1">
          <mxGeometry x="615" y="972.5" width="110" height="30" as="geometry" />
        </mxCell>
        <mxCell id="K71paMH0ZI0jcNfA3QA--42" value="" style="endArrow=classic;html=1;rounded=0;" edge="1" parent="1">
          <mxGeometry width="50" height="50" relative="1" as="geometry">
            <mxPoint x="735" y="1022.5" as="sourcePoint" />
            <mxPoint x="735" y="952.5" as="targetPoint" />
          </mxGeometry>
        </mxCell>
        <mxCell id="K71paMH0ZI0jcNfA3QA--43" value="2. selectRecruitInfo()" style="text;html=1;align=center;verticalAlign=middle;resizable=0;points=[];autosize=1;strokeColor=none;fillColor=none;" vertex="1" parent="1">
          <mxGeometry x="665" y="767.5" width="130" height="30" as="geometry" />
        </mxCell>
        <mxCell id="K71paMH0ZI0jcNfA3QA--44" value="" style="endArrow=classic;html=1;rounded=0;" edge="1" parent="1">
          <mxGeometry width="50" height="50" relative="1" as="geometry">
            <mxPoint x="669.5" y="1112.5" as="sourcePoint" />
            <mxPoint x="645" y="1142.5" as="targetPoint" />
          </mxGeometry>
        </mxCell>
        <mxCell id="K71paMH0ZI0jcNfA3QA--61" value="2.1.3 : getRecruitdetail()" style="text;html=1;align=center;verticalAlign=middle;resizable=0;points=[];autosize=1;strokeColor=none;fillColor=none;" vertex="1" parent="1">
          <mxGeometry x="850" y="1100.5" width="150" height="30" as="geometry" />
        </mxCell>
        <mxCell id="K71paMH0ZI0jcNfA3QA--93" value="회사 회원" style="shape=umlActor;verticalLabelPosition=bottom;verticalAlign=top;html=1;" vertex="1" parent="1">
          <mxGeometry x="82.5" y="1305" width="30" height="60" as="geometry" />
        </mxCell>
        <mxCell id="K71paMH0ZI0jcNfA3QA--94" value=":ReviseRecruit UI" style="rounded=0;whiteSpace=wrap;html=1;" vertex="1" parent="1">
          <mxGeometry x="177.5" y="1450" width="120" height="60" as="geometry" />
        </mxCell>
        <mxCell id="K71paMH0ZI0jcNfA3QA--95" value=":ReviseRecruit" style="whiteSpace=wrap;html=1;" vertex="1" parent="1">
          <mxGeometry x="177.5" y="1610" width="120" height="60" as="geometry" />
        </mxCell>
        <mxCell id="K71paMH0ZI0jcNfA3QA--96" value="" style="endArrow=none;html=1;rounded=0;entryX=0.5;entryY=0;entryDx=0;entryDy=0;exitX=0.5;exitY=0.817;exitDx=0;exitDy=0;exitPerimeter=0;" edge="1" parent="1" source="K71paMH0ZI0jcNfA3QA--93" target="K71paMH0ZI0jcNfA3QA--94">
          <mxGeometry width="50" height="50" relative="1" as="geometry">
            <mxPoint x="217.5" y="1445" as="sourcePoint" />
            <mxPoint x="267.5" y="1395" as="targetPoint" />
          </mxGeometry>
        </mxCell>
        <mxCell id="K71paMH0ZI0jcNfA3QA--97" value="" style="endArrow=none;html=1;rounded=0;entryX=0.5;entryY=0;entryDx=0;entryDy=0;exitX=0.5;exitY=1;exitDx=0;exitDy=0;" edge="1" parent="1" source="K71paMH0ZI0jcNfA3QA--94" target="K71paMH0ZI0jcNfA3QA--95">
          <mxGeometry width="50" height="50" relative="1" as="geometry">
            <mxPoint x="312.5" y="1625" as="sourcePoint" />
            <mxPoint x="97.5" y="1635" as="targetPoint" />
          </mxGeometry>
        </mxCell>
        <mxCell id="K71paMH0ZI0jcNfA3QA--98" value="" style="endArrow=classic;html=1;rounded=0;" edge="1" parent="1">
          <mxGeometry width="50" height="50" relative="1" as="geometry">
            <mxPoint x="137.5" y="1355" as="sourcePoint" />
            <mxPoint x="207.5" y="1415" as="targetPoint" />
            <Array as="points" />
          </mxGeometry>
        </mxCell>
        <mxCell id="K71paMH0ZI0jcNfA3QA--99" value="" style="endArrow=classic;html=1;rounded=0;" edge="1" parent="1">
          <mxGeometry width="50" height="50" relative="1" as="geometry">
            <mxPoint x="255" y="1545" as="sourcePoint" />
            <mxPoint x="255" y="1605" as="targetPoint" />
          </mxGeometry>
        </mxCell>
        <mxCell id="K71paMH0ZI0jcNfA3QA--100" value="2.1 showRecruitInfoDetail()&lt;br data-darkreader-inline-border=&quot;&quot; style=&quot;border-color: var(--darkreader-border--border-color); --darkreader-inline-border: var(--darkreader-border--darkreader-border--border-color);&quot;&gt;3.1 reviseRecruitInfo()" style="text;whiteSpace=wrap;html=1;" vertex="1" parent="1">
          <mxGeometry x="261" y="1547" width="169" height="15" as="geometry" />
        </mxCell>
        <mxCell id="K71paMH0ZI0jcNfA3QA--101" value="채용정보 수정하기" style="shape=umlFrame;whiteSpace=wrap;html=1;pointerEvents=0;width=160;height=20;" vertex="1" parent="1">
          <mxGeometry y="1280" width="480" height="520" as="geometry" />
        </mxCell>
        <mxCell id="K71paMH0ZI0jcNfA3QA--102" value=":RecruitInfo" style="whiteSpace=wrap;html=1;" vertex="1" parent="1">
          <mxGeometry x="294" y="1730" width="120" height="60" as="geometry" />
        </mxCell>
        <mxCell id="K71paMH0ZI0jcNfA3QA--103" value=":Company" style="whiteSpace=wrap;html=1;" vertex="1" parent="1">
          <mxGeometry x="80" y="1730" width="120" height="60" as="geometry" />
        </mxCell>
        <mxCell id="K71paMH0ZI0jcNfA3QA--104" value="" style="endArrow=none;html=1;rounded=0;entryX=0.549;entryY=0.019;entryDx=0;entryDy=0;exitX=1;exitY=1;exitDx=0;exitDy=0;entryPerimeter=0;" edge="1" parent="1" source="K71paMH0ZI0jcNfA3QA--95" target="K71paMH0ZI0jcNfA3QA--102">
          <mxGeometry width="50" height="50" relative="1" as="geometry">
            <mxPoint x="237.5" y="1595" as="sourcePoint" />
            <mxPoint x="377.5" y="1744.9999999999995" as="targetPoint" />
          </mxGeometry>
        </mxCell>
        <mxCell id="K71paMH0ZI0jcNfA3QA--105" value="" style="endArrow=none;html=1;rounded=0;entryX=0.117;entryY=1.017;entryDx=0;entryDy=0;entryPerimeter=0;exitX=0.66;exitY=-0.036;exitDx=0;exitDy=0;exitPerimeter=0;" edge="1" parent="1" source="K71paMH0ZI0jcNfA3QA--103" target="K71paMH0ZI0jcNfA3QA--95">
          <mxGeometry width="50" height="50" relative="1" as="geometry">
            <mxPoint x="148.5" y="1743.9799999999996" as="sourcePoint" />
            <mxPoint x="287.5" y="1545" as="targetPoint" />
          </mxGeometry>
        </mxCell>
        <mxCell id="K71paMH0ZI0jcNfA3QA--106" value="&lt;span style=&quot;text-align: left;&quot;&gt;2.1.1: listRecruitInfo(&lt;/span&gt;&lt;span style=&quot;text-align: left;&quot;&gt;)&lt;/span&gt;" style="text;html=1;strokeColor=none;fillColor=none;align=center;verticalAlign=middle;whiteSpace=wrap;rounded=0;" vertex="1" parent="1">
          <mxGeometry x="40" y="1685" width="130" height="20" as="geometry" />
        </mxCell>
        <mxCell id="K71paMH0ZI0jcNfA3QA--107" value="1: startInterface()" style="text;html=1;align=center;verticalAlign=middle;resizable=0;points=[];autosize=1;strokeColor=none;fillColor=none;" vertex="1" parent="1">
          <mxGeometry x="107.5" y="1555" width="110" height="30" as="geometry" />
        </mxCell>
        <mxCell id="K71paMH0ZI0jcNfA3QA--108" value="" style="endArrow=classic;html=1;rounded=0;" edge="1" parent="1">
          <mxGeometry width="50" height="50" relative="1" as="geometry">
            <mxPoint x="227.5" y="1605" as="sourcePoint" />
            <mxPoint x="227.5" y="1535" as="targetPoint" />
          </mxGeometry>
        </mxCell>
        <mxCell id="K71paMH0ZI0jcNfA3QA--109" value="2. selectCompany()&lt;br&gt;3. reviseRecruitInfo()" style="text;html=1;align=center;verticalAlign=middle;resizable=0;points=[];autosize=1;strokeColor=none;fillColor=none;" vertex="1" parent="1">
          <mxGeometry x="157.5" y="1343" width="130" height="40" as="geometry" />
        </mxCell>
        <mxCell id="K71paMH0ZI0jcNfA3QA--110" value="" style="endArrow=classic;html=1;rounded=0;" edge="1" parent="1">
          <mxGeometry width="50" height="50" relative="1" as="geometry">
            <mxPoint x="175" y="1685" as="sourcePoint" />
            <mxPoint x="150.5" y="1715" as="targetPoint" />
          </mxGeometry>
        </mxCell>
        <mxCell id="K71paMH0ZI0jcNfA3QA--121" value="3.1.1: reviseRecruitInfo()" style="text;html=1;align=center;verticalAlign=middle;resizable=0;points=[];autosize=1;strokeColor=none;fillColor=none;" vertex="1" parent="1">
          <mxGeometry x="330" y="1655" width="150" height="30" as="geometry" />
        </mxCell>
        <mxCell id="K71paMH0ZI0jcNfA3QA--260" value="" style="endArrow=classic;html=1;rounded=0;" edge="1" parent="1">
          <mxGeometry width="50" height="50" relative="1" as="geometry">
            <mxPoint x="845" y="1115" as="sourcePoint" />
            <mxPoint x="900" y="1145" as="targetPoint" />
            <Array as="points" />
          </mxGeometry>
        </mxCell>
        <mxCell id="K71paMH0ZI0jcNfA3QA--261" value="" style="endArrow=classic;html=1;rounded=0;exitX=0.011;exitY=0.743;exitDx=0;exitDy=0;exitPerimeter=0;" edge="1" parent="1" source="K71paMH0ZI0jcNfA3QA--121">
          <mxGeometry width="50" height="50" relative="1" as="geometry">
            <mxPoint x="350" y="1709" as="sourcePoint" />
            <mxPoint x="380" y="1720" as="targetPoint" />
            <Array as="points" />
          </mxGeometry>
        </mxCell>
        <mxCell id="EixyRkAgwoJFA63Q9zNU-20" value="회사 회원" style="shape=umlActor;verticalLabelPosition=bottom;verticalAlign=top;html=1;" vertex="1" parent="1">
          <mxGeometry x="625" y="1305" width="30" height="60" as="geometry" />
        </mxCell>
        <mxCell id="EixyRkAgwoJFA63Q9zNU-21" value=":DeleteRecruit UI" style="rounded=0;whiteSpace=wrap;html=1;" vertex="1" parent="1">
          <mxGeometry x="725" y="1450" width="120" height="60" as="geometry" />
        </mxCell>
        <mxCell id="EixyRkAgwoJFA63Q9zNU-22" value=":DeleteRecruit" style="whiteSpace=wrap;html=1;" vertex="1" parent="1">
          <mxGeometry x="725" y="1610" width="120" height="60" as="geometry" />
        </mxCell>
        <mxCell id="EixyRkAgwoJFA63Q9zNU-23" value="" style="endArrow=none;html=1;rounded=0;entryX=0.5;entryY=0;entryDx=0;entryDy=0;exitX=0.5;exitY=0.817;exitDx=0;exitDy=0;exitPerimeter=0;" edge="1" parent="1" source="EixyRkAgwoJFA63Q9zNU-20" target="EixyRkAgwoJFA63Q9zNU-21">
          <mxGeometry width="50" height="50" relative="1" as="geometry">
            <mxPoint x="760" y="1445" as="sourcePoint" />
            <mxPoint x="810" y="1395" as="targetPoint" />
          </mxGeometry>
        </mxCell>
        <mxCell id="EixyRkAgwoJFA63Q9zNU-24" value="" style="endArrow=none;html=1;rounded=0;entryX=0.5;entryY=0;entryDx=0;entryDy=0;exitX=0.5;exitY=1;exitDx=0;exitDy=0;" edge="1" parent="1" source="EixyRkAgwoJFA63Q9zNU-21" target="EixyRkAgwoJFA63Q9zNU-22">
          <mxGeometry width="50" height="50" relative="1" as="geometry">
            <mxPoint x="855" y="1625" as="sourcePoint" />
            <mxPoint x="640" y="1635" as="targetPoint" />
          </mxGeometry>
        </mxCell>
        <mxCell id="EixyRkAgwoJFA63Q9zNU-25" value="" style="endArrow=classic;html=1;rounded=0;" edge="1" parent="1">
          <mxGeometry width="50" height="50" relative="1" as="geometry">
            <mxPoint x="680" y="1355" as="sourcePoint" />
            <mxPoint x="750" y="1415" as="targetPoint" />
            <Array as="points" />
          </mxGeometry>
        </mxCell>
        <mxCell id="EixyRkAgwoJFA63Q9zNU-26" value="" style="endArrow=classic;html=1;rounded=0;" edge="1" parent="1">
          <mxGeometry width="50" height="50" relative="1" as="geometry">
            <mxPoint x="795" y="1540" as="sourcePoint" />
            <mxPoint x="795" y="1600" as="targetPoint" />
          </mxGeometry>
        </mxCell>
        <mxCell id="EixyRkAgwoJFA63Q9zNU-27" value="2.1 showRecruitInfoDetail()&lt;br&gt;3.1 deleteRecruitInfo()" style="text;whiteSpace=wrap;html=1;" vertex="1" parent="1">
          <mxGeometry x="810" y="1545" width="156" height="20" as="geometry" />
        </mxCell>
        <mxCell id="EixyRkAgwoJFA63Q9zNU-28" value="채용정보 삭제하기" style="shape=umlFrame;whiteSpace=wrap;html=1;pointerEvents=0;width=160;height=20;" vertex="1" parent="1">
          <mxGeometry x="520" y="1280" width="470" height="520" as="geometry" />
        </mxCell>
        <mxCell id="EixyRkAgwoJFA63Q9zNU-29" value=":RecruitInfo" style="whiteSpace=wrap;html=1;" vertex="1" parent="1">
          <mxGeometry x="860" y="1724" width="120" height="60" as="geometry" />
        </mxCell>
        <mxCell id="EixyRkAgwoJFA63Q9zNU-30" value=":Company" style="whiteSpace=wrap;html=1;" vertex="1" parent="1">
          <mxGeometry x="615" y="1724" width="120" height="60" as="geometry" />
        </mxCell>
        <mxCell id="EixyRkAgwoJFA63Q9zNU-32" value="" style="endArrow=none;html=1;rounded=0;entryX=0.117;entryY=1.017;entryDx=0;entryDy=0;entryPerimeter=0;exitX=0.675;exitY=-0.017;exitDx=0;exitDy=0;exitPerimeter=0;" edge="1" parent="1" source="EixyRkAgwoJFA63Q9zNU-30" target="EixyRkAgwoJFA63Q9zNU-22">
          <mxGeometry width="50" height="50" relative="1" as="geometry">
            <mxPoint x="780" y="1595" as="sourcePoint" />
            <mxPoint x="830" y="1545" as="targetPoint" />
          </mxGeometry>
        </mxCell>
        <mxCell id="EixyRkAgwoJFA63Q9zNU-33" value="1: startInterface()" style="text;html=1;align=center;verticalAlign=middle;resizable=0;points=[];autosize=1;strokeColor=none;fillColor=none;" vertex="1" parent="1">
          <mxGeometry x="650" y="1555" width="110" height="30" as="geometry" />
        </mxCell>
        <mxCell id="EixyRkAgwoJFA63Q9zNU-34" value="" style="endArrow=classic;html=1;rounded=0;" edge="1" parent="1">
          <mxGeometry width="50" height="50" relative="1" as="geometry">
            <mxPoint x="770" y="1605" as="sourcePoint" />
            <mxPoint x="770" y="1535" as="targetPoint" />
          </mxGeometry>
        </mxCell>
        <mxCell id="EixyRkAgwoJFA63Q9zNU-35" value="2. selectCompany()&lt;br&gt;3. deleteRecruitInfo()" style="text;html=1;align=center;verticalAlign=middle;resizable=0;points=[];autosize=1;strokeColor=none;fillColor=none;" vertex="1" parent="1">
          <mxGeometry x="687.5" y="1343" width="140" height="40" as="geometry" />
        </mxCell>
        <mxCell id="EixyRkAgwoJFA63Q9zNU-36" value="" style="endArrow=classic;html=1;rounded=0;" edge="1" parent="1">
          <mxGeometry width="50" height="50" relative="1" as="geometry">
            <mxPoint x="704.5" y="1695" as="sourcePoint" />
            <mxPoint x="680" y="1725" as="targetPoint" />
          </mxGeometry>
        </mxCell>
        <mxCell id="EixyRkAgwoJFA63Q9zNU-40" value="&lt;span style=&quot;text-align: left;&quot;&gt;2.1.1: listRecruitInfo()&lt;/span&gt;&lt;br data-darkreader-inline-border=&quot;&quot; style=&quot;border-color: var(--darkreader-border--border-color); text-align: left; --darkreader-inline-border: var(--darkreader-border--darkreader-border--border-color);&quot;&gt;&lt;span style=&quot;text-align: left;&quot;&gt;3.1.1: deleteRecruitInfo()&lt;/span&gt;" style="text;html=1;strokeColor=none;fillColor=none;align=center;verticalAlign=middle;whiteSpace=wrap;rounded=0;" vertex="1" parent="1">
          <mxGeometry x="520" y="1685" width="190" height="30" as="geometry" />
        </mxCell>
        <mxCell id="EixyRkAgwoJFA63Q9zNU-69" value="" style="endArrow=none;html=1;rounded=0;entryX=0;entryY=0.5;entryDx=0;entryDy=0;exitX=1;exitY=0.5;exitDx=0;exitDy=0;" edge="1" parent="1" source="K71paMH0ZI0jcNfA3QA--2" target="K71paMH0ZI0jcNfA3QA--1">
          <mxGeometry width="50" height="50" relative="1" as="geometry">
            <mxPoint x="141" y="1174" as="sourcePoint" />
            <mxPoint x="184" y="1116" as="targetPoint" />
          </mxGeometry>
        </mxCell>
        <mxCell id="EixyRkAgwoJFA63Q9zNU-70" value="3.1.1.1 RecruitInfo()" style="text;html=1;align=center;verticalAlign=middle;resizable=0;points=[];autosize=1;strokeColor=none;fillColor=none;" vertex="1" parent="1">
          <mxGeometry x="170" y="1149" width="130" height="30" as="geometry" />
        </mxCell>
        <mxCell id="EixyRkAgwoJFA63Q9zNU-71" value="" style="endArrow=none;html=1;rounded=0;entryX=0;entryY=0.5;entryDx=0;entryDy=0;exitX=1;exitY=0.5;exitDx=0;exitDy=0;" edge="1" parent="1" source="EixyRkAgwoJFA63Q9zNU-30" target="EixyRkAgwoJFA63Q9zNU-29">
          <mxGeometry width="50" height="50" relative="1" as="geometry">
            <mxPoint x="850" y="1695" as="sourcePoint" />
            <mxPoint x="930" y="1755" as="targetPoint" />
          </mxGeometry>
        </mxCell>
        <mxCell id="EixyRkAgwoJFA63Q9zNU-72" value="3.1.1.1: ~RecruitInfo" style="edgeLabel;html=1;align=center;verticalAlign=middle;resizable=0;points=[];" connectable="0" vertex="1" parent="EixyRkAgwoJFA63Q9zNU-71">
          <mxGeometry x="-0.1956" y="3" relative="1" as="geometry">
            <mxPoint x="13" y="-22" as="offset" />
          </mxGeometry>
        </mxCell>
        <mxCell id="OpeE6zxOzzpMG_I_0L6V-6" value="" style="endArrow=classic;html=1;rounded=0;exitX=0.125;exitY=1.033;exitDx=0;exitDy=0;exitPerimeter=0;entryX=0.863;entryY=1.045;entryDx=0;entryDy=0;entryPerimeter=0;" edge="1" parent="1" source="EixyRkAgwoJFA63Q9zNU-70" target="EixyRkAgwoJFA63Q9zNU-70">
          <mxGeometry width="50" height="50" relative="1" as="geometry">
            <mxPoint x="154.5" y="1125" as="sourcePoint" />
            <mxPoint x="130" y="1155" as="targetPoint" />
          </mxGeometry>
        </mxCell>
        <mxCell id="OpeE6zxOzzpMG_I_0L6V-8" value="" style="endArrow=classic;html=1;rounded=0;" edge="1" parent="1">
          <mxGeometry width="50" height="50" relative="1" as="geometry">
            <mxPoint x="767.5" y="1745" as="sourcePoint" />
            <mxPoint x="827.5" y="1745" as="targetPoint" />
          </mxGeometry>
        </mxCell>
        <mxCell id="OpeE6zxOzzpMG_I_0L6V-34" value="회사 회원" style="shape=umlActor;verticalLabelPosition=bottom;verticalAlign=top;html=1;" vertex="1" parent="1">
          <mxGeometry x="50" y="1870" width="30" height="60" as="geometry" />
        </mxCell>
        <mxCell id="OpeE6zxOzzpMG_I_0L6V-35" value=":ShowRecruit UI" style="rounded=0;whiteSpace=wrap;html=1;" vertex="1" parent="1">
          <mxGeometry x="165" y="2022.5" width="120" height="60" as="geometry" />
        </mxCell>
        <mxCell id="OpeE6zxOzzpMG_I_0L6V-36" value=":ShowRecruit" style="whiteSpace=wrap;html=1;" vertex="1" parent="1">
          <mxGeometry x="165" y="2182.5" width="120" height="60" as="geometry" />
        </mxCell>
        <mxCell id="OpeE6zxOzzpMG_I_0L6V-37" value="" style="endArrow=none;html=1;rounded=0;entryX=0.5;entryY=0;entryDx=0;entryDy=0;exitX=0.5;exitY=0.817;exitDx=0;exitDy=0;exitPerimeter=0;" edge="1" parent="1" target="OpeE6zxOzzpMG_I_0L6V-35">
          <mxGeometry width="50" height="50" relative="1" as="geometry">
            <mxPoint x="85" y="1911.52" as="sourcePoint" />
            <mxPoint x="255" y="1952.5" as="targetPoint" />
          </mxGeometry>
        </mxCell>
        <mxCell id="OpeE6zxOzzpMG_I_0L6V-38" value="" style="endArrow=none;html=1;rounded=0;entryX=0.5;entryY=0;entryDx=0;entryDy=0;exitX=0.5;exitY=1;exitDx=0;exitDy=0;" edge="1" parent="1" source="OpeE6zxOzzpMG_I_0L6V-35" target="OpeE6zxOzzpMG_I_0L6V-36">
          <mxGeometry width="50" height="50" relative="1" as="geometry">
            <mxPoint x="300" y="2182.5" as="sourcePoint" />
            <mxPoint x="85" y="2192.5" as="targetPoint" />
          </mxGeometry>
        </mxCell>
        <mxCell id="OpeE6zxOzzpMG_I_0L6V-39" value="" style="endArrow=classic;html=1;rounded=0;" edge="1" parent="1">
          <mxGeometry width="50" height="50" relative="1" as="geometry">
            <mxPoint x="125" y="1912.5" as="sourcePoint" />
            <mxPoint x="195" y="1972.5" as="targetPoint" />
            <Array as="points" />
          </mxGeometry>
        </mxCell>
        <mxCell id="OpeE6zxOzzpMG_I_0L6V-40" value="" style="endArrow=classic;html=1;rounded=0;" edge="1" parent="1">
          <mxGeometry width="50" height="50" relative="1" as="geometry">
            <mxPoint x="245" y="2112.5" as="sourcePoint" />
            <mxPoint x="245" y="2172.5" as="targetPoint" />
          </mxGeometry>
        </mxCell>
        <mxCell id="OpeE6zxOzzpMG_I_0L6V-41" value="&lt;span data-darkreader-inline-bgcolor=&quot;&quot; data-darkreader-inline-color=&quot;&quot; style=&quot;color: rgb(255, 255, 251); font-family: Helvetica; font-size: 12px; font-style: normal; font-variant-ligatures: normal; font-variant-caps: normal; font-weight: 400; letter-spacing: normal; orphans: 2; text-align: center; text-indent: 0px; text-transform: none; widows: 2; word-spacing: 0px; -webkit-text-stroke-width: 0px; background-color: rgb(39, 39, 38); text-decoration-thickness: initial; text-decoration-style: initial; text-decoration-color: initial; float: none; --darkreader-inline-color: #ffffec; --darkreader-inline-bgcolor: #2b2b29; display: inline !important;&quot;&gt;2.1 showRecruitInfoDetail()&lt;/span&gt;" style="text;whiteSpace=wrap;html=1;" vertex="1" parent="1">
          <mxGeometry x="255" y="2102.5" width="185" height="20" as="geometry" />
        </mxCell>
        <mxCell id="OpeE6zxOzzpMG_I_0L6V-42" value="마감된 채용정보 리스트 조회" style="shape=umlFrame;whiteSpace=wrap;html=1;pointerEvents=0;width=178;height=20;" vertex="1" parent="1">
          <mxGeometry y="1840" width="540" height="520" as="geometry" />
        </mxCell>
        <mxCell id="OpeE6zxOzzpMG_I_0L6V-43" value=":RecruitInfo" style="whiteSpace=wrap;html=1;" vertex="1" parent="1">
          <mxGeometry x="225" y="2290" width="120" height="60" as="geometry" />
        </mxCell>
        <mxCell id="OpeE6zxOzzpMG_I_0L6V-44" value=":Company" style="whiteSpace=wrap;html=1;" vertex="1" parent="1">
          <mxGeometry x="37.5" y="2290" width="120" height="60" as="geometry" />
        </mxCell>
        <mxCell id="OpeE6zxOzzpMG_I_0L6V-45" value="" style="endArrow=none;html=1;rounded=0;entryX=0.5;entryY=0;entryDx=0;entryDy=0;exitX=1;exitY=1;exitDx=0;exitDy=0;" edge="1" parent="1" source="OpeE6zxOzzpMG_I_0L6V-36" target="OpeE6zxOzzpMG_I_0L6V-43">
          <mxGeometry width="50" height="50" relative="1" as="geometry">
            <mxPoint x="225" y="2152.5" as="sourcePoint" />
            <mxPoint x="275" y="2102.5" as="targetPoint" />
          </mxGeometry>
        </mxCell>
        <mxCell id="OpeE6zxOzzpMG_I_0L6V-46" value="" style="endArrow=none;html=1;rounded=0;entryX=0.117;entryY=1.017;entryDx=0;entryDy=0;entryPerimeter=0;exitX=0.675;exitY=-0.017;exitDx=0;exitDy=0;exitPerimeter=0;" edge="1" parent="1" source="OpeE6zxOzzpMG_I_0L6V-44" target="OpeE6zxOzzpMG_I_0L6V-36">
          <mxGeometry width="50" height="50" relative="1" as="geometry">
            <mxPoint x="225" y="2152.5" as="sourcePoint" />
            <mxPoint x="275" y="2102.5" as="targetPoint" />
          </mxGeometry>
        </mxCell>
        <mxCell id="OpeE6zxOzzpMG_I_0L6V-47" value="&lt;span style=&quot;text-align: left;&quot;&gt;2.1.2 listRecruitInfo()&lt;/span&gt;" style="text;html=1;strokeColor=none;fillColor=none;align=center;verticalAlign=middle;whiteSpace=wrap;rounded=0;" vertex="1" parent="1">
          <mxGeometry y="2240" width="150" height="30" as="geometry" />
        </mxCell>
        <mxCell id="OpeE6zxOzzpMG_I_0L6V-48" value="1. startInterface()" style="text;html=1;align=center;verticalAlign=middle;resizable=0;points=[];autosize=1;strokeColor=none;fillColor=none;" vertex="1" parent="1">
          <mxGeometry x="95" y="2112.5" width="110" height="30" as="geometry" />
        </mxCell>
        <mxCell id="OpeE6zxOzzpMG_I_0L6V-49" value="" style="endArrow=classic;html=1;rounded=0;" edge="1" parent="1">
          <mxGeometry width="50" height="50" relative="1" as="geometry">
            <mxPoint x="215" y="2162.5" as="sourcePoint" />
            <mxPoint x="215" y="2092.5" as="targetPoint" />
          </mxGeometry>
        </mxCell>
        <mxCell id="OpeE6zxOzzpMG_I_0L6V-50" value="2. selectRecruitInfo()" style="text;html=1;align=center;verticalAlign=middle;resizable=0;points=[];autosize=1;strokeColor=none;fillColor=none;" vertex="1" parent="1">
          <mxGeometry x="145" y="1907.5" width="130" height="30" as="geometry" />
        </mxCell>
        <mxCell id="OpeE6zxOzzpMG_I_0L6V-51" value="" style="endArrow=classic;html=1;rounded=0;" edge="1" parent="1">
          <mxGeometry width="50" height="50" relative="1" as="geometry">
            <mxPoint x="145" y="2245" as="sourcePoint" />
            <mxPoint x="120.5" y="2275" as="targetPoint" />
          </mxGeometry>
        </mxCell>
        <mxCell id="OpeE6zxOzzpMG_I_0L6V-52" value="" style="endArrow=classic;html=1;rounded=0;exitX=0.04;exitY=0.488;exitDx=0;exitDy=0;exitPerimeter=0;" edge="1" parent="1" source="OpeE6zxOzzpMG_I_0L6V-53">
          <mxGeometry width="50" height="50" relative="1" as="geometry">
            <mxPoint x="297.5" y="2255" as="sourcePoint" />
            <mxPoint x="290" y="2280" as="targetPoint" />
            <Array as="points" />
          </mxGeometry>
        </mxCell>
        <mxCell id="OpeE6zxOzzpMG_I_0L6V-53" value="2.1.3 [(ApplicantsNum == NumberOfPeople)&lt;br&gt;or (Date &amp;gt; Deadline)]: getRecruitInfolist()&lt;br data-darkreader-inline-border=&quot;&quot; style=&quot;border-color: var(--darkreader-border--border-color); text-align: left; --darkreader-inline-border: var(--darkreader-border--darkreader-border--border-color);&quot;&gt;&lt;span style=&quot;text-align: left;&quot;&gt;2.1.4: sortbyDeadline()&lt;/span&gt;" style="text;html=1;align=center;verticalAlign=middle;resizable=0;points=[];autosize=1;strokeColor=none;fillColor=none;" vertex="1" parent="1">
          <mxGeometry x="275" y="2220.5" width="260" height="60" as="geometry" />
        </mxCell>
        <mxCell id="OpeE6zxOzzpMG_I_0L6V-55" value="회사 회원" style="shape=umlActor;verticalLabelPosition=bottom;verticalAlign=top;html=1;" vertex="1" parent="1">
          <mxGeometry x="642.5" y="1865" width="30" height="60" as="geometry" />
        </mxCell>
        <mxCell id="OpeE6zxOzzpMG_I_0L6V-56" value=":CloseRecruit UI" style="rounded=0;whiteSpace=wrap;html=1;" vertex="1" parent="1">
          <mxGeometry x="737.5" y="2025" width="120" height="60" as="geometry" />
        </mxCell>
        <mxCell id="OpeE6zxOzzpMG_I_0L6V-57" value=":CloseRecruit" style="whiteSpace=wrap;html=1;" vertex="1" parent="1">
          <mxGeometry x="737.5" y="2185" width="120" height="60" as="geometry" />
        </mxCell>
        <mxCell id="OpeE6zxOzzpMG_I_0L6V-58" value="" style="endArrow=none;html=1;rounded=0;entryX=0.5;entryY=0;entryDx=0;entryDy=0;exitX=0.5;exitY=0.817;exitDx=0;exitDy=0;exitPerimeter=0;" edge="1" parent="1" source="OpeE6zxOzzpMG_I_0L6V-55" target="OpeE6zxOzzpMG_I_0L6V-56">
          <mxGeometry width="50" height="50" relative="1" as="geometry">
            <mxPoint x="777.5" y="2005" as="sourcePoint" />
            <mxPoint x="827.5" y="1955" as="targetPoint" />
          </mxGeometry>
        </mxCell>
        <mxCell id="OpeE6zxOzzpMG_I_0L6V-59" value="" style="endArrow=none;html=1;rounded=0;entryX=0.5;entryY=0;entryDx=0;entryDy=0;exitX=0.5;exitY=1;exitDx=0;exitDy=0;" edge="1" parent="1" source="OpeE6zxOzzpMG_I_0L6V-56" target="OpeE6zxOzzpMG_I_0L6V-57">
          <mxGeometry width="50" height="50" relative="1" as="geometry">
            <mxPoint x="872.5" y="2185" as="sourcePoint" />
            <mxPoint x="657.5" y="2195" as="targetPoint" />
          </mxGeometry>
        </mxCell>
        <mxCell id="OpeE6zxOzzpMG_I_0L6V-60" value="" style="endArrow=classic;html=1;rounded=0;" edge="1" parent="1">
          <mxGeometry width="50" height="50" relative="1" as="geometry">
            <mxPoint x="697.5" y="1915" as="sourcePoint" />
            <mxPoint x="767.5" y="1975" as="targetPoint" />
            <Array as="points" />
          </mxGeometry>
        </mxCell>
        <mxCell id="OpeE6zxOzzpMG_I_0L6V-61" value="" style="endArrow=classic;html=1;rounded=0;" edge="1" parent="1">
          <mxGeometry width="50" height="50" relative="1" as="geometry">
            <mxPoint x="815" y="2105" as="sourcePoint" />
            <mxPoint x="815" y="2165" as="targetPoint" />
          </mxGeometry>
        </mxCell>
        <mxCell id="OpeE6zxOzzpMG_I_0L6V-62" value="2.1 closeRecruitInfo()" style="text;whiteSpace=wrap;html=1;" vertex="1" parent="1">
          <mxGeometry x="821" y="2107" width="122.5" height="15" as="geometry" />
        </mxCell>
        <mxCell id="OpeE6zxOzzpMG_I_0L6V-63" value="채용정보 마감하기" style="shape=umlFrame;whiteSpace=wrap;html=1;pointerEvents=0;width=160;height=20;" vertex="1" parent="1">
          <mxGeometry x="560" y="1840" width="800" height="520" as="geometry" />
        </mxCell>
        <mxCell id="OpeE6zxOzzpMG_I_0L6V-64" value=":RecruitInfo" style="whiteSpace=wrap;html=1;" vertex="1" parent="1">
          <mxGeometry x="835" y="2290" width="120" height="60" as="geometry" />
        </mxCell>
        <mxCell id="OpeE6zxOzzpMG_I_0L6V-65" value=":Company" style="whiteSpace=wrap;html=1;" vertex="1" parent="1">
          <mxGeometry x="640" y="2290" width="120" height="60" as="geometry" />
        </mxCell>
        <mxCell id="OpeE6zxOzzpMG_I_0L6V-66" value="" style="endArrow=none;html=1;rounded=0;entryX=0.398;entryY=-0.03;entryDx=0;entryDy=0;exitX=1;exitY=1;exitDx=0;exitDy=0;entryPerimeter=0;" edge="1" parent="1" source="OpeE6zxOzzpMG_I_0L6V-57" target="OpeE6zxOzzpMG_I_0L6V-64">
          <mxGeometry width="50" height="50" relative="1" as="geometry">
            <mxPoint x="797.5" y="2155" as="sourcePoint" />
            <mxPoint x="937.5" y="2305" as="targetPoint" />
          </mxGeometry>
        </mxCell>
        <mxCell id="OpeE6zxOzzpMG_I_0L6V-67" value="" style="endArrow=none;html=1;rounded=0;entryX=0.117;entryY=1.017;entryDx=0;entryDy=0;entryPerimeter=0;exitX=0.635;exitY=-0.017;exitDx=0;exitDy=0;exitPerimeter=0;" edge="1" parent="1" source="OpeE6zxOzzpMG_I_0L6V-65" target="OpeE6zxOzzpMG_I_0L6V-57">
          <mxGeometry width="50" height="50" relative="1" as="geometry">
            <mxPoint x="708.5" y="2303.9799999999996" as="sourcePoint" />
            <mxPoint x="847.5" y="2105" as="targetPoint" />
          </mxGeometry>
        </mxCell>
        <mxCell id="OpeE6zxOzzpMG_I_0L6V-68" value="&lt;span style=&quot;text-align: left;&quot;&gt;2.1.1: listRecruitInfo(&lt;/span&gt;&lt;span style=&quot;text-align: left;&quot;&gt;)&lt;/span&gt;" style="text;html=1;strokeColor=none;fillColor=none;align=center;verticalAlign=middle;whiteSpace=wrap;rounded=0;" vertex="1" parent="1">
          <mxGeometry x="600" y="2245" width="130" height="20" as="geometry" />
        </mxCell>
        <mxCell id="OpeE6zxOzzpMG_I_0L6V-69" value="1: startInterface()" style="text;html=1;align=center;verticalAlign=middle;resizable=0;points=[];autosize=1;strokeColor=none;fillColor=none;" vertex="1" parent="1">
          <mxGeometry x="667.5" y="2115" width="110" height="30" as="geometry" />
        </mxCell>
        <mxCell id="OpeE6zxOzzpMG_I_0L6V-70" value="" style="endArrow=classic;html=1;rounded=0;" edge="1" parent="1">
          <mxGeometry width="50" height="50" relative="1" as="geometry">
            <mxPoint x="787.5" y="2165" as="sourcePoint" />
            <mxPoint x="787.5" y="2095" as="targetPoint" />
          </mxGeometry>
        </mxCell>
        <mxCell id="OpeE6zxOzzpMG_I_0L6V-71" value="2. closeRecruitInfo()" style="text;html=1;align=center;verticalAlign=middle;resizable=0;points=[];autosize=1;strokeColor=none;fillColor=none;" vertex="1" parent="1">
          <mxGeometry x="710" y="1908" width="130" height="30" as="geometry" />
        </mxCell>
        <mxCell id="OpeE6zxOzzpMG_I_0L6V-72" value="" style="endArrow=classic;html=1;rounded=0;" edge="1" parent="1">
          <mxGeometry width="50" height="50" relative="1" as="geometry">
            <mxPoint x="725" y="2260" as="sourcePoint" />
            <mxPoint x="700.5" y="2290" as="targetPoint" />
          </mxGeometry>
        </mxCell>
        <mxCell id="OpeE6zxOzzpMG_I_0L6V-75" value="2.1.1.1 [(ApplicantsNum == NumberOfPeople) or (Date &amp;gt; Deadline)]: getRecruitInfolist()&lt;br&gt;2.1.1.2: closeRecruitInfo()" style="text;html=1;align=left;verticalAlign=middle;resizable=0;points=[];autosize=1;strokeColor=none;fillColor=none;" vertex="1" parent="1">
          <mxGeometry x="881" y="2225" width="490" height="40" as="geometry" />
        </mxCell>
        <mxCell id="OpeE6zxOzzpMG_I_0L6V-77" value="" style="endArrow=classic;html=1;rounded=0;" edge="1" parent="1">
          <mxGeometry width="50" height="50" relative="1" as="geometry">
            <mxPoint x="868.25" y="2245" as="sourcePoint" />
            <mxPoint x="896.25" y="2285.5" as="targetPoint" />
            <Array as="points" />
          </mxGeometry>
        </mxCell>
      </root>
    </mxGraphModel>
  </diagram>
</mxfile>
